<svg width="958" height="532" viewBox="0 0 958 532" fill="none" xmlns="http://www.w3.org/2000/svg">
<g clip-path="url(#clip0_2403_3)">
<rect width="958" height="532" fill="url(#paint0_linear_2403_3)"/>
<rect x="445" y="-1" width="25" height="445" fill="white"/>
<rect x="513" y="-1" width="25" height="445" fill="white"/>
<rect x="479" y="-1" width="25" height="445" fill="white"/>
<g clip-path="url(#clip1_2403_3)">
<line x1="513.001" y1="319" x2="253.999" y2="319" stroke="white" stroke-opacity="0.22"/>
<line x1="513.001" y1="309" x2="253.999" y2="309" stroke="white" stroke-opacity="0.22"/>
<line x1="513.001" y1="299" x2="253.999" y2="299" stroke="white" stroke-opacity="0.22"/>
<line x1="513.001" y1="289" x2="253.999" y2="289" stroke="white" stroke-opacity="0.22"/>
<line x1="513.001" y1="279" x2="253.999" y2="279" stroke="white" stroke-opacity="0.22"/>
<line x1="513.001" y1="269" x2="253.999" y2="269" stroke="white" stroke-opacity="0.22"/>
<line x1="513.001" y1="259" x2="253.999" y2="259" stroke="white" stroke-opacity="0.22"/>
<line x1="513.001" y1="249" x2="253.999" y2="249" stroke="white" stroke-opacity="0.22"/>
<line x1="513.001" y1="239" x2="253.999" y2="239" stroke="white" stroke-opacity="0.22"/>
<line x1="513.001" y1="229" x2="253.999" y2="229" stroke="white" stroke-opacity="0.22"/>
<line x1="513.001" y1="219" x2="253.999" y2="219" stroke="white" stroke-opacity="0.22"/>
<line x1="513.001" y1="209" x2="253.999" y2="209" stroke="white" stroke-opacity="0.22"/>
<line x1="513.001" y1="199" x2="253.999" y2="199" stroke="white" stroke-opacity="0.22"/>
<line x1="513.001" y1="189" x2="253.999" y2="189" stroke="white" stroke-opacity="0.22"/>
<line x1="513.001" y1="179" x2="253.999" y2="179" stroke="white" stroke-opacity="0.22"/>
<line x1="513.001" y1="169" x2="253.999" y2="169" stroke="white" stroke-opacity="0.22"/>
<line x1="513.001" y1="159" x2="253.999" y2="159" stroke="white" stroke-opacity="0.22"/>
<line x1="513.001" y1="149" x2="253.999" y2="149" stroke="white" stroke-opacity="0.22"/>
<line x1="513.001" y1="139" x2="253.999" y2="139" stroke="white" stroke-opacity="0.22"/>
<line x1="513.001" y1="129" x2="253.999" y2="129" stroke="white" stroke-opacity="0.22"/>
<line x1="513.001" y1="119" x2="253.999" y2="119" stroke="white" stroke-opacity="0.22"/>
<line x1="513.001" y1="109" x2="253.999" y2="109" stroke="white" stroke-opacity="0.22"/>
<line x1="513.001" y1="99" x2="253.999" y2="99" stroke="white" stroke-opacity="0.22"/>
<line x1="513.001" y1="89" x2="253.999" y2="89" stroke="white" stroke-opacity="0.22"/>
<line x1="513.001" y1="79" x2="253.999" y2="79" stroke="white" stroke-opacity="0.22"/>
<line x1="513.001" y1="69" x2="253.999" y2="69" stroke="white" stroke-opacity="0.22"/>
<line x1="263" y1="329.008" x2="263" y2="59.9916" stroke="white" stroke-opacity="0.22"/>
<line x1="273" y1="329.008" x2="273" y2="59.9916" stroke="white" stroke-opacity="0.22"/>
<line x1="283" y1="329.008" x2="283" y2="59.9916" stroke="white" stroke-opacity="0.22"/>
<line x1="293" y1="329.008" x2="293" y2="59.9916" stroke="white" stroke-opacity="0.22"/>
<line x1="303" y1="329.008" x2="303" y2="59.9916" stroke="white" stroke-opacity="0.22"/>
<line x1="313" y1="329.008" x2="313" y2="59.9916" stroke="white" stroke-opacity="0.22"/>
<line x1="323" y1="329.008" x2="323" y2="59.9916" stroke="white" stroke-opacity="0.22"/>
<line x1="333" y1="329.008" x2="333" y2="59.9916" stroke="white" stroke-opacity="0.22"/>
<line x1="343" y1="329.008" x2="343" y2="59.9916" stroke="white" stroke-opacity="0.22"/>
<line x1="353" y1="329.008" x2="353" y2="59.9916" stroke="white" stroke-opacity="0.22"/>
<line x1="363" y1="329.008" x2="363" y2="59.9916" stroke="white" stroke-opacity="0.22"/>
<line x1="373" y1="329.008" x2="373" y2="59.9916" stroke="white" stroke-opacity="0.22"/>
<line x1="383" y1="329.008" x2="383" y2="59.9916" stroke="white" stroke-opacity="0.22"/>
<line x1="393" y1="329.008" x2="393" y2="59.9916" stroke="white" stroke-opacity="0.22"/>
<line x1="403" y1="329.008" x2="403" y2="59.9916" stroke="white" stroke-opacity="0.22"/>
<line x1="413" y1="329.008" x2="413" y2="59.9916" stroke="white" stroke-opacity="0.22"/>
<line x1="423" y1="329.008" x2="423" y2="59.9916" stroke="white" stroke-opacity="0.22"/>
<line x1="433" y1="329.008" x2="433" y2="59.9916" stroke="white" stroke-opacity="0.22"/>
<line x1="443" y1="329.008" x2="443" y2="59.9916" stroke="white" stroke-opacity="0.22"/>
<line x1="453" y1="329.008" x2="453" y2="59.9916" stroke="white" stroke-opacity="0.22"/>
<line x1="463" y1="329.008" x2="463" y2="59.9916" stroke="white" stroke-opacity="0.22"/>
<line x1="473" y1="329.008" x2="473" y2="59.9916" stroke="white" stroke-opacity="0.22"/>
<line x1="483" y1="329.008" x2="483" y2="59.9916" stroke="white" stroke-opacity="0.22"/>
<line x1="493" y1="329.008" x2="493" y2="59.9916" stroke="white" stroke-opacity="0.22"/>
<line x1="503" y1="329.008" x2="503" y2="59.9916" stroke="white" stroke-opacity="0.22"/>
</g>
<rect x="445" y="495" width="25" height="89" fill="white"/>
<rect x="479" y="495" width="25" height="89" fill="white"/>
<rect x="513" y="495" width="25" height="89" fill="white"/>
<path d="M474.914 470.18C474.914 472.06 474.378 473.5 473.305 474.5C472.237 475.5 470.693 476 468.672 476H465.438V464.578H469.023C470.888 464.578 472.336 465.07 473.367 466.055C474.398 467.039 474.914 468.414 474.914 470.18ZM472.398 470.242C472.398 467.789 471.315 466.562 469.148 466.562H467.859V474H468.898C471.232 474 472.398 472.747 472.398 470.242ZM484.273 476L483.445 473.281H479.281L478.453 476H475.844L479.875 464.531H482.836L486.883 476H484.273ZM482.867 471.25C482.102 468.786 481.669 467.393 481.57 467.07C481.477 466.747 481.409 466.492 481.367 466.305C481.195 466.971 480.703 468.62 479.891 471.25H482.867ZM493.164 476L490.414 467.039H490.344C490.443 468.862 490.492 470.078 490.492 470.688V476H488.328V464.578H491.625L494.328 473.312H494.375L497.242 464.578H500.539V476H498.281V470.594C498.281 470.339 498.284 470.044 498.289 469.711C498.299 469.378 498.336 468.492 498.398 467.055H498.328L495.383 476H493.164ZM510 476H503.422V464.578H510V466.562H505.844V469.07H509.711V471.055H505.844V474H510V476ZM519.906 468.703C521.01 468.703 521.888 469.013 522.539 469.633C523.195 470.253 523.523 471.102 523.523 472.18C523.523 473.456 523.13 474.438 522.344 475.125C521.557 475.812 520.432 476.156 518.969 476.156C517.698 476.156 516.672 475.951 515.891 475.539V473.453C516.302 473.672 516.781 473.852 517.328 473.992C517.875 474.128 518.393 474.195 518.883 474.195C520.357 474.195 521.094 473.591 521.094 472.383C521.094 471.232 520.331 470.656 518.805 470.656C518.529 470.656 518.224 470.685 517.891 470.742C517.557 470.794 517.286 470.852 517.078 470.914L516.117 470.398L516.547 464.578H522.742V466.625H518.664L518.453 468.867L518.727 468.812C519.044 468.74 519.438 468.703 519.906 468.703Z" fill="white"/>
<circle cx="20.5" cy="252.5" r="4" stroke="white" stroke-opacity="0.37"/>
<line x1="25" y1="222.5" x2="50" y2="222.5" stroke="white" stroke-opacity="0.49"/>
<circle cx="20.5" cy="222.5" r="4.5" fill="white" fill-opacity="0.69"/>
<circle cx="20.5" cy="282.5" r="4" stroke="white" stroke-opacity="0.37"/>
<circle cx="20.5" cy="312.5" r="4" stroke="white" stroke-opacity="0.37"/>
<circle cx="20.5" cy="342.5" r="4" stroke="white" stroke-opacity="0.37"/>
<line x1="206.987" y1="489.473" x2="246.987" y2="489.473" stroke="white" stroke-opacity="0.43"/>
<line x1="716.987" y1="489.473" x2="756.987" y2="489.473" stroke="white" stroke-opacity="0.43"/>
<circle cx="902" cy="248" r="2" fill="#272525"/>
<path d="M764 489.5L757.25 493.397V485.603L764 489.5Z" fill="white" fill-opacity="0.43"/>
<path d="M200 489.5L206.75 485.603V493.397L200 489.5Z" fill="white" fill-opacity="0.43"/>
</g>
<defs>
<linearGradient id="paint0_linear_2403_3" x1="734.737" y1="-2.50498e-05" x2="155.875" y2="478.742" gradientUnits="userSpaceOnUse">
<stop stop-color="#FFB800"/>
<stop offset="1" stop-color="#E41C8E" stop-opacity="0.84"/>
</linearGradient>
<clipPath id="clip0_2403_3">
<rect width="958" height="532" fill="white"/>
</clipPath>
<clipPath id="clip1_2403_3">
<rect x="254" y="329" width="269" height="259" rx="129.5" transform="rotate(-90 254 329)" fill="white"/>
</clipPath>
</defs>
</svg>
